# xmcd CD database file
#
# Track frame offsets:
#	150
#	13825
#	28220
#	40846
#	54122
#	66714
#	80121
#	94218
#	108039
#	120963
#	135737
#	151903
#	164834
#	179381
#	193037
#
# Disc length: 2743 seconds
#
# Revision: 1
# Processed by: cddbd v1.5.2PL0 Copyright (c) Steve Scherf et al.
# Submitted via: CDex 1.70beta2
#
DISCID=cd0ab50f
DTITLE=Big Bill Broonzy - Mississippi River Blues - CD 2
DYEAR=1900
DGENRE=
TTITLE0=Mountain Blues
TTITLE1=Oh Baby (Don't Do Me That Way)
TTITLE2=Long Tall Mama
TTITLE3=Get Away
TTITLE4=I Want To Go Home
TTITLE5=At The Break Of Day
TTITLE6=Little Bug
TTITLE7=The Sun Gonna Shine In My Door Sameday
TTITLE8=Black Widow Spider
TTITLE9=Come Up To My House
TTITLE10=The Southern Blues
TTITLE11=You Know I Got A Reason
TTITLE12=I Can't Make You Satisfied
TTITLE13=I'm Just A Burn
TTITLE14=You Do Me Any Old Way
EXTD=
EXTT0=
EXTT1=
EXTT2=
EXTT3=
EXTT4=
EXTT5=
EXTT6=
EXTT7=
EXTT8=
EXTT9=
EXTT10=
EXTT11=
EXTT12=
EXTT13=
EXTT14=
PLAYORDER=
